<?xml version="1.0" encoding="utf-8"?>
<!-- Generator: Adobe Illustrator 21.0.0, SVG Export Plug-In . SVG Version: 6.00 Build 0)  -->
<svg version="1.1" id="Layer_1" xmlns="http://www.w3.org/2000/svg" xmlns:xlink="http://www.w3.org/1999/xlink" x="0px" y="0px"
	 viewBox="0 0 116.7 9.5" style="enable-background:new 0 0 116.7 9.5;" xml:space="preserve">
<style type="text/css">
	.st0{fill:#FFFFFF;}
</style>
<g>
	<path class="st0" d="M100.9,3.7c-0.6,1.4-1.1,2.8-1.7,4.3C99,8.5,98.8,9.1,98,9.1c-0.9,0-1.1-0.6-1.3-1.2c-0.6-1.5-1.2-3.1-1.9-4.6
		c-0.3,0.2-0.2,0.4-0.2,0.6c0,1.5,0,2.9,0,4.4c0,0.6-0.2,0.8-0.8,0.7c-0.5,0-0.8,0-0.8-0.7c0-2.3,0-4.7,0-7c0-0.7,0.3-1,1-1
		c0,0,0.1,0,0.1,0c2.2-0.1,2.2-0.1,3,2c0.4,1.1,0.9,2.3,1.4,3.6c0.6-1.6,1.2-3,1.8-4.5c0.3-0.8,0.8-1.1,1.7-1.1
		c2.3,0,2.3-0.1,2.2,2.3c0,1.9,0,3.7,0,5.6c0,0.7-0.2,1-0.9,0.9c-0.6-0.1-1.3,0.2-1.9-0.2c-0.2-1.5,0-3-0.1-4.6
		C101.2,4.1,101.4,3.7,100.9,3.7z"/>
	<path class="st0" d="M73.7,2.8c0,1.8,0,3.6,0,5.4c0,0.7-0.1,0.9-0.9,0.9c-1.9,0-2,0-1.9-2c0-1.8,0-3.7,0-5.5c0-1.1,0.1-1.1,1.2-1.3
		c1.4-0.2,2.3,0.3,3,1.6c0.8,1.6,1.9,3.1,3,4.5c0-0.8,0-1.6,0-2.3c0-1,0-2,0-3.1c0-0.5,0.1-0.7,0.7-0.7c2.1,0,2.1-0.1,2.1,2
		c0,1.9,0,3.8,0,5.7c0,0.7-0.3,1-1,1.1c-1.4,0.2-2.4-0.3-3-1.6c-0.9-1.6-1.9-3.2-2.9-4.7C73.8,2.7,73.7,2.7,73.7,2.8z"/>
	<path class="st0" d="M63,3c-0.8,0.1-1.4-0.1-1.9-0.9c-1-1.4-2.8-1.4-3.9-0.1c-1.2,1.4-1.2,3.8-0.1,5.3C58.2,8.7,60,8.8,61,7.4
		c0.6-0.9,1.3-1.1,2.3-1c0.3,0,0.9-0.2,1,0.1c0.2,0.3-0.2,0.7-0.5,1c-2.2,2.6-7.2,2.7-9.4,0.1c-1.7-1.9-1.3-4.8,0.9-6.4
		c2.1-1.6,6-1.4,8,0.3c0.1,0.1,0.2,0.2,0.3,0.2c0.3,0.4,0.9,0.8,0.7,1.2C64.1,3.3,63.4,2.9,63,3z"/>
	<path class="st0" d="M87.5,0.4c1,0,2.1,0,3.1,0c0.4,0,0.6,0.1,0.6,0.5c0,0.5-0.2,0.6-0.6,0.5c-1.3,0-2.5,0-3.8,0
		c-0.4,0-0.8,0-1,0.4c-0.2,0.5-0.2,1.1-0.1,1.7c0.1,0.3,0.4,0.2,0.6,0.2c1.3,0,2.6,0,3.9,0c0.4,0,0.9-0.2,0.9,0.5
		c0,0.7-0.5,0.5-0.9,0.6c-1.3,0-2.6,0-3.9,0c-0.5,0-0.8,0.1-0.7,0.7c0,2.9-0.3,2.6,2.5,2.6c0.8,0,1.6,0,2.3,0c0.4,0,0.7,0,0.7,0.6
		c0,0.5-0.3,0.5-0.6,0.5c-2.2,0-4.3,0-6.5,0c-0.8,0-1.3-0.5-1.3-1.3c0-2,0-4.1,0-6.1c0-0.8,0.5-1.3,1.3-1.3
		C85.3,0.4,86.4,0.4,87.5,0.4z"/>
	<path class="st0" d="M45.4,9.1c-1,0-2.1,0-3.1,0c-0.9,0-1.3-0.4-1.4-1.3c0-2,0-4,0-6c0-0.9,0.4-1.3,1.3-1.3c2.1,0,4.3,0,6.4,0
		c0.4,0,0.7,0,0.7,0.6c0,0.5-0.3,0.5-0.6,0.5c-1.3,0-2.6,0-3.9,0c-0.4,0-0.8,0-0.9,0.4c-0.2,0.5-0.2,1.1-0.1,1.7
		c0.1,0.3,0.4,0.2,0.6,0.2c1.3,0,2.7,0,4,0c0.3,0,0.7-0.1,0.7,0.5c0,0.6-0.4,0.6-0.8,0.6c-1.3,0-2.7,0-4,0c-0.6,0-0.7,0.2-0.7,0.7
		c0,3,0,2.5,2.5,2.6c0.8,0,1.7,0,2.5,0c0.4,0,0.6,0.1,0.6,0.5c0,0.4-0.1,0.6-0.6,0.6C47.6,9,46.5,9.1,45.4,9.1
		C45.4,9.1,45.4,9.1,45.4,9.1z"/>
	<path class="st0" d="M24.2,0.4c1.4,0,2.9,0,4.3,0c0.4,0,0.7,0,0.7,0.6c0,0.5-0.3,0.5-0.6,0.5c-0.7,0-1.5,0-2.2,0
		c-0.6,0-0.7,0.2-0.7,0.7c0,2,0,4.1,0,6.1c0,0.6-0.1,0.8-0.8,0.8c-2.1,0-2.1,0-2.1-2c0-1.6,0-3.3,0-4.9c0-0.5-0.1-0.7-0.7-0.7
		c-0.8,0-1.6,0-2.3,0c-0.4,0-0.6-0.1-0.6-0.5c0-0.5,0.2-0.5,0.6-0.5C21.3,0.4,22.7,0.4,24.2,0.4z"/>
	<path class="st0" d="M35.1,0.4c1.4,0,2.8,0,4.2,0c0.4,0,0.8-0.1,0.8,0.6c0,0.6-0.4,0.5-0.7,0.5c-0.7,0-1.4,0-2.2,0
		c-0.6,0-0.7,0.2-0.7,0.7c0,2,0,4.1,0,6.1c0,0.6-0.1,0.8-0.8,0.8c-2.1,0-2.1,0-2.1-2.1c0-1.5-0.1-3.1,0-4.6c0-0.8-0.2-1-1-1
		c-0.6,0.1-1.3,0-1.9,0c-0.4,0-0.7,0-0.7-0.5c0-0.6,0.4-0.5,0.7-0.5C32.2,0.4,33.6,0.4,35.1,0.4z"/>
	<path class="st0" d="M65.9,4.7c0-1.2,0-2.5,0-3.7c0-0.4,0.1-0.6,0.6-0.6c2.2-0.1,2.2-0.1,2.2,2.1c0,1.9,0,3.9,0,5.8
		c0,0.6-0.1,0.8-0.7,0.8c-2.1,0-2.1,0-2.1-2C65.9,6.3,65.9,5.5,65.9,4.7z"/>
	<path class="st0" d="M100.9,3.7c0-0.3,0.1-0.4,0.4-0.6c0,2,0,3.9,0,5.8c-0.4-1.3-0.1-2.6-0.2-3.8C101.1,4.6,101.3,4.1,100.9,3.7z"
		/>
	<path class="st0" d="M0.1,8.3C0,5.9,0,3.4,0,1C0,0,0.7,0.3,1.1,0.4C1.7,0.5,2.8-0.3,2.8,1c0.1,1.9,0,3.8,0,5.8C2.9,7.8,3,8,4.1,8
		c1,0,2,0,3,0c0.4,0,0.7,0,0.7,0.6c0,0.5-0.3,0.5-0.6,0.5c-1.9,0-3.8,0-5.8,0C0.8,9.1,0.4,8.8,0.1,8.3L0.1,8.3z"/>
	<path class="st0" d="M13.3,0c1.6,0,2.9,0.3,4,1.1c2.4,1.8,2.5,5.3,0.1,7.1c-2,1.6-5.8,1.6-7.9,0.1c-2.6-2-2.4-5.9,0.5-7.5
		C11.1,0.2,12.2,0,13.3,0z M15.2,1.9c-1.1-1.1-2.6-1.1-3.7,0c-1.4,1.5-1.4,4.2,0,5.7c1,1.1,2.5,1.1,3.6,0c0.8-0.8,1.1-1.8,1.1-2.9
		C16.2,3.7,16,2.7,15.2,1.9z"/>
	<path class="st0" d="M116.7,9.1c-0.9,0-1.7,0-2.4,0c-0.6,0-0.7-0.5-0.9-0.9c-0.3-0.7-0.7-1-1.5-0.9c-1,0.1-2,0.1-3.1,0
		c-0.7,0-1.1,0.2-1.3,0.9c-0.2,0.8-0.8,1-1.6,0.9c-0.6,0-0.6-0.2-0.3-0.6c1.2-2.1,2.3-4.2,3.4-6.3c0.1-0.2,0.2-0.4,0.3-0.6
		c0.6-1.1,1.1-1.4,2.4-1.2c0.3,0.1,0.6,0.2,0.8,0.5C113.9,3.6,115.2,6.3,116.7,9.1z M110.5,6.3c1.8,0,1.8,0,1-1.7
		c-0.3-0.6-0.4-1.6-1.1-1.6c-0.6,0-0.7,1-1,1.6c-0.9,1.7-0.9,1.7,1,1.7C110.4,6.3,110.4,6.3,110.5,6.3z"/>
</g>
</svg>
